<?xml version="1.0" encoding="utf-8"?>
<!-- Generator: Adobe Illustrator 23.0.5, SVG Export Plug-In . SVG Version: 6.00 Build 0)  -->
<svg version="1.1" id="Layer_1" xmlns="http://www.w3.org/2000/svg" xmlns:xlink="http://www.w3.org/1999/xlink" x="0px" y="0px"
	 viewBox="0 0 150 150" style="enable-background:new 0 0 150 150;" xml:space="preserve">
<style type="text/css">
	.st0{fill:#FF4E00;}
	.st1{fill:#FFFFFF;}
</style>
<g>
	<path class="st0" d="M75,0C33.6,0,0,33.6,0,75s33.6,75,75,75s75-33.6,75-75S116.4,0,75,0L75,0z"/>
	<g>
		<path class="st1" d="M75,74.9c8.9,0,17.8,0.1,26.7,0c9.4-0.1,17.4,7.3,18.2,16.5c0.8,9.4-6.1,18.3-15.5,19.5
			c-0.9,0.1-1.9,0.2-2.8,0.2c-17.8,0-35.5,0-53.3,0c-9.2,0-16.5-6.1-18.2-15.2c-1.8-9.5,5.2-19.3,14.7-20.8c1.1-0.2,2.2-0.2,3.4-0.2
			C57.2,74.9,66.1,74.9,75,74.9z M75,97.3c2.7,0,4.4-1.7,4.4-4.3c0-2.6-1.8-4.4-4.3-4.4c-2.5,0-4.4,1.8-4.4,4.4
			C70.6,95.6,72.3,97.3,75,97.3z M88.5,97.3c2.7,0,4.4-1.7,4.4-4.3c0-2.6-1.8-4.4-4.4-4.4c-2.5,0-4.4,1.8-4.4,4.4
			C84.1,95.6,85.8,97.3,88.5,97.3z M101.9,97.3c2.7,0,4.4-1.7,4.4-4.3c0-2.6-1.8-4.4-4.3-4.4c-2.5,0-4.4,1.8-4.4,4.4
			C97.6,95.6,99.3,97.3,101.9,97.3z"/>
		<path class="st1" d="M75.1,38.9c7.1,0.1,13.4,2.4,18.6,7.4c2.1,2,2.2,4.2,0.5,6.5c-1.9,2.6-4.1,2.8-6.3,0.6
			c-6.7-6.6-18.2-6.5-25.2-0.1c-2.1,1.9-4.6,2-6.4,0.3c-2-1.8-2.1-4.5-0.3-6.5c3.9-4.3,8.7-6.8,14.3-7.9
			C71.8,39.1,73.4,38.9,75.1,38.9z"/>
		<path class="st1" d="M75.4,50.3c4.1,0.1,7.9,1.4,11,4.2c2,1.8,2.2,4.5,0.6,6.4c-1.7,2-4.9,2.3-6.8,0.6c-1.4-1.3-3-2.2-5-2.2
			c-1.7,0-3.2,0.5-4.5,1.7c-2.1,2.1-4.7,2.1-6.6,0.2c-1.8-1.8-1.9-4.5-0.1-6.3C67.2,51.7,71,50.4,75.4,50.3z"/>
		<path class="st1" d="M75,61.5c2.6,0,4.7,2.1,4.6,4.6c0,2.5-2.2,4.6-4.7,4.6c-2.5,0-4.6-2.2-4.6-4.7C70.4,63.5,72.5,61.5,75,61.5z"
			/>
	</g>
</g>
</svg>
