<?xml version="1.0" encoding="utf-8"?>
<!-- Generator: Adobe Illustrator 23.0.5, SVG Export Plug-In . SVG Version: 6.00 Build 0)  -->
<svg version="1.1" id="Layer_1" xmlns="http://www.w3.org/2000/svg" xmlns:xlink="http://www.w3.org/1999/xlink" x="0px" y="0px"
	 viewBox="0 0 150 150" style="enable-background:new 0 0 150 150;" xml:space="preserve">
<style type="text/css">
	.st0{fill:#ED1C24;}
	.st1{fill:#FFFFFF;}
</style>
<g>
	<path class="st0" d="M75,0C33.6,0,0,33.6,0,75s33.6,75,75,75s75-33.6,75-75S116.4,0,75,0L75,0z"/>
	<g>
		<path class="st1" d="M79.2,56.5c1.5,0,2.8,0,4.1,0c6.1,0,12.2,0,18.4,0c7.6,0,13.7,6.1,13.8,13.8c0,11.8,0,23.6,0,35.4
			c0,7.7-6.2,13.8-13.9,13.8c-17.7,0-35.3,0-53,0c-7.7,0-13.9-6.1-13.9-13.9c0-11.7,0-23.4,0-35.2c0-7.8,6.1-13.9,13.8-13.9
			c7.2,0,14.3,0,21.5,0c1.4,0,1.4,0,0.8-1.3c-2.5-5.6-5-11.2-7.6-16.7c-1-2.1,0.6-3.8,2.3-3.6c1,0.1,1.6,0.8,2,1.7
			c2.3,5,4.5,10,6.8,15c0.3,0.7,0.7,1.4,1.1,2.2c1.4-2.2,2.6-4.3,3.9-6.3c3.9-6.4,7.7-12.7,11.6-19.1c0.2-0.3,0.4-0.7,0.6-1
			c0.8-1,2.1-1.2,3.1-0.5c1,0.7,1.3,2,0.7,3.1c-0.6,1.1-1.3,2.2-1.9,3.2c-4.6,7.5-9.2,15.1-13.7,22.6C79.4,56,79.4,56.2,79.2,56.5z
			 M75.1,61.2c-8.6,0-17.3,0-25.9,0c-0.9,0-1.8,0-2.7,0.2c-4.3,1-7.1,4.5-7.1,9.1c0,11.7,0,23.4,0,35.1c0,0.7,0,1.4,0.2,2.1
			c0.8,3.7,4.3,7.2,9.4,7.2c17.4-0.1,34.8,0,52.2,0c0.8,0,1.7,0,2.5-0.2c4.3-1,7.1-4.5,7.1-9.1c0-11.7,0-23.4,0-35.1
			c0-0.7,0-1.4-0.2-2.1c-0.8-3.8-4.4-7.2-9.1-7.2C92.6,61.3,83.8,61.2,75.1,61.2z"/>
		<path class="st1" d="M68.3,67.7c6.4,0,12.7,0,19.1,0c2.4,0,3.2,0.8,3.2,3.2c0,11.4,0,22.8,0,34.2c0,2.3-0.8,3.2-3.1,3.2
			c-12.8,0-25.7,0-38.5,0c-2.2,0-3.1-0.9-3.2-3.1c0-11.4,0-22.9,0-34.3c0-2.3,0.9-3.2,3.2-3.2C55.4,67.7,61.9,67.7,68.3,67.7z"/>
		<path class="st1" d="M100.1,82.2c3.5,0,6.4,2.9,6.4,6.4c-0.1,3.5-3,6.5-6.5,6.4c-3.6,0-6.5-2.9-6.4-6.6
			C93.6,84.9,96.5,82.1,100.1,82.2z"/>
		<path class="st1" d="M100,79.8c-3.6,0-6.4-2.8-6.4-6.3c0-3.6,2.9-6.5,6.4-6.5c3.5,0,6.5,3,6.5,6.5C106.5,76.9,103.6,79.8,100,79.8
			z"/>
	</g>
</g>
</svg>
