<?xml version="1.0" encoding="utf-8"?>
<!-- Generator: Adobe Illustrator 23.0.5, SVG Export Plug-In . SVG Version: 6.00 Build 0)  -->
<svg version="1.1" id="Layer_1" xmlns="http://www.w3.org/2000/svg" xmlns:xlink="http://www.w3.org/1999/xlink" x="0px" y="0px"
	 viewBox="0 0 150 150" style="enable-background:new 0 0 150 150;" xml:space="preserve">
<style type="text/css">
	.st0{fill:#FF4E00;}
	.st1{fill:#FFFFFF;}
</style>
<g>
	<path class="st0" d="M75,0C33.6,0,0,33.6,0,75s33.6,75,75,75s75-33.6,75-75S116.4,0,75,0L75,0z"/>
	<g>
		<path class="st1" d="M41.5,116.5c1.6-4.3,3.1-8.6,4.7-12.9c0.2-0.7,0.5-0.8,1.1-0.4c5.1,3.5,10.8,5.1,17,5.1
			c0.4,0,0.7,0.1,0.8,0.5c0.9,2.6,1.8,5.1,2.7,7.7C59,116.5,50.2,116.5,41.5,116.5z"/>
		<path class="st1" d="M38.1,79.8c0.1-7,2.6-13,7.2-18.2c0.5-0.6,0.8-0.6,1.4,0c9.5,9.8,19.1,19.6,28.6,29.4
			c1.8,1.9,3.7,3.8,5.5,5.7c0.5,0.5,0.5,0.8,0,1.3c-4.7,4.1-10.1,6.4-16.4,6.7c-12.5,0.6-23.1-8.2-25.7-19.2
			C38.3,83.6,38.1,81.7,38.1,79.8z"/>
		<path class="st1" d="M111.9,59.8c0.1,1.9-0.2,3.8-0.6,5.7c-0.3,1.4-1.2,2.1-2.3,1.9c-1.1-0.2-1.8-1.4-1.5-2.7
			c1.1-5,0.6-9.8-1.6-14.4c-3.4-7-8.8-11.3-16.5-12.8c-0.6-0.1-1.1-0.1-1.7-0.2c-1.1-0.2-1.7-1-1.7-2c0.1-1,0.9-1.8,1.9-1.8
			c3.5,0.2,6.8,1.1,9.8,2.8c7.9,4.4,12.4,11.1,13.9,19.9c0.1,0.5,0.2,1.1,0.2,1.6C111.9,58.5,111.9,59.2,111.9,59.8z"/>
		<path class="st1" d="M70.4,80.8c-0.1-0.1-0.3-0.2-0.4-0.4c-1.9-1.9-3.7-3.8-5.6-5.7c-0.4-0.4-0.3-0.6,0.1-0.9
			C68.7,70.9,73,68,77.3,65c0.4-0.3,0.7-0.3,0.9,0.2c0.4,0.6,0.9,1.1,1.4,1.5c0.6,0.4,0.4,0.8,0.1,1.2c-2.2,3.1-4.4,6.2-6.6,9.3
			c-0.7,1-1.5,2.1-2.2,3.1C70.8,80.5,70.7,80.8,70.4,80.8z"/>
		<path class="st1" d="M100.9,60.1c0.1,1.1-0.2,2.4-0.5,3.7c-0.3,1.3-1.3,2-2.3,1.7c-1.2-0.3-1.8-1.4-1.4-2.7
			c1.8-6.4-2.6-13.1-8.6-14.4c-0.6-0.1-1.3-0.2-1.9-0.3c-1.2-0.1-2-0.9-2-2c0-1.1,0.9-1.9,2.1-1.8c5.4,0.2,9.5,2.8,12.4,7.3
			C100.1,54.1,100.9,56.8,100.9,60.1z"/>
		<path class="st1" d="M84.4,64.9c-2.3,0-4.2-2-4.2-4.4c0-2,2.2-4,4.4-4c2.2,0,4.2,2,4.2,4.2C88.7,63.1,86.8,64.9,84.4,64.9z"/>
	</g>
</g>
</svg>
