<?xml version="1.0" encoding="utf-8"?>
<!-- Generator: Adobe Illustrator 23.0.5, SVG Export Plug-In . SVG Version: 6.00 Build 0)  -->
<svg version="1.1" id="Layer_1" xmlns="http://www.w3.org/2000/svg" xmlns:xlink="http://www.w3.org/1999/xlink" x="0px" y="0px"
	 viewBox="0 0 150 150" style="enable-background:new 0 0 150 150;" xml:space="preserve">
<g>
	<g>
		<path d="M104,88.5L104,88.5c0,1.4-0.4,1.8-1.8,1.8c-0.3,0-0.7,0-1,0c0.1,0.2,0.2,0.4,0.3,0.6c0.2,0.4,0.4,0.9,0.5,1.4
			c0,0,0,0.1,0,0.1c0.2,0,0.4,0,0.6,0c0.1,0,0.6,0,0.9,0.3c0.2,0.2,0.3,0.5,0.3,0.9c0,0.2,0,0.4,0,0.7c0,0.1,0,0.3,0,0.4v0.7h-1.9
			c-0.8,2.6-1.6,3.5-4,4.7l0.3,0.7c0.5,1.1,1,2.2,1.5,3.2c0.5,1.1,1,2.2,1.5,3.2l1,2.1l-2.7,1.3l-0.4-0.8c-0.1-0.1-0.1-0.2-0.2-0.3
			c-0.3-0.7-0.7-1.4-1-2.1c-1-2.1-2.1-4.3-3.1-6.5c-0.1-0.2-0.2-0.3-0.2-0.3c0,0,0,0-0.2,0c-0.3,0-0.6,0-0.9,0c-0.1,0-0.2,0-0.3,0
			h-0.7v-3.1h0.7c0.3,0,0.6,0,0.8,0c0.6,0,1.2,0,1.8,0c1.2,0,2.4-0.9,2.9-2.1h-6.3v-0.7c0-0.1,0-0.3,0-0.4c0-0.3,0-0.7,0-1.1
			c0.1-0.6,0.8-0.9,1.2-0.9c1.4,0,2.9,0,4.3,0l0.7,0c-0.4-1.1-1.6-2-2.7-2c-0.8,0-1.6,0-2.4,0c0,0,0,0,0,0c-0.7,0-1.2-0.4-1.2-1.2
			l0,0c0-0.7,0-1.1,0.3-1.5c0.4-0.4,0.8-0.4,1.5-0.4l2,0c2,0,4.1,0,6.1,0c0.3,0,0.7,0,1,0.3C104,87.8,104,88.2,104,88.5z"/>
		<g>
			<path d="M96.7,121.6c-1.3-0.2-2.6-0.4-3.9-0.7c-2.3-0.5-4.4-1.5-6.5-2.6c-0.5-0.3-1.2-0.5-1.9-0.5c-15.9,0-31.8,0-47.7,0
				c-3.6,0-6.2-1.4-7.8-4.7c-0.3-0.6-0.5-1.3-0.6-2c-0.6-6.3,0.7-11.9,5.5-16.3c1.4-1.2,3-2.3,4.7-3.1c7.1-3.4,14.6-5.6,22.4-6.5
				c5.6-0.6,11.2-0.4,16.8,0.7c0.7,0.1,1-0.1,1.3-0.6c3.9-5.7,9.3-9,16.1-10c11.4-1.6,22.4,5.6,25.5,16.7c0.4,1.5,0.6,3.1,0.9,4.7
				c0,1.1,0,2.2,0,3.3c-0.1,0.2-0.1,0.5-0.2,0.7c-1,9.7-7.6,17.5-17,20.1c-1.5,0.4-3,0.6-4.5,0.9C98.9,121.6,97.8,121.6,96.7,121.6z
				 M82.8,98.2c-0.1,8.6,6.8,15.6,15.5,15.7c8.6,0.1,15.6-6.9,15.7-15.5c0.1-8.6-6.8-15.6-15.5-15.7C89.8,82.6,82.8,89.5,82.8,98.2z
				"/>
			<path d="M90.6,42.2c-1.3,0.4-2.5,0.8-3.6,1.2c-0.2,0.1-0.3,0.5-0.3,0.8c0,3.5,0,7,0,10.6c0,1.6-0.3,2.1-1.8,2.6
				c-4.9,1.8-10,3.2-15.3,3.7c-3.9,0.3-7.8-0.2-11.6-1.2c-2.8-0.7-5.6-1.6-8.4-2.5c-1.5-0.5-1.8-1-1.8-2.5c0-1.6,0-3.2,0-4.7
				c0-1.6,1.1-2.4,2.7-1.9c2.7,0.8,5.4,1.8,8.1,2.5c0.6,0.2,1.3,0.1,1.8-0.1c0.8-0.3,1.1-1,1-1.9c-0.1-0.9-0.6-1.4-1.4-1.7
				c-2.5-0.8-5-1.6-7.6-2.4c-4.3-1.3-8.5-2.7-12.8-4c-1.2-0.4-1.8-1.3-1.5-2.4c0.2-0.8,0.8-1.2,1.5-1.4c5.9-1.9,11.7-3.8,17.6-5.6
				c3-1,5.9-1.9,8.9-2.8c0.6-0.2,1.3-0.2,1.9,0c8.8,2.8,17.7,5.7,26.5,8.5c0.9,0.3,1.6,0.8,1.6,1.8c0.1,1-0.5,1.6-1.4,2
				c-0.2,0.1-0.5,0.5-0.5,0.7c0,2.1,0,4.3,0,6.4c0,0.3,0.2,0.6,0.4,0.9c2,2.4,2.1,6.6,0.3,9.1c-0.2,0.3-0.3,0.8-0.3,1.2
				c0.4,2.4,0.9,4.8,1.4,7.2c0.2,0.9,0,1.7-0.7,2.4c-0.6,0.5-1.1,1.1-1.7,1.7c-0.8,0.7-1.9,0.7-2.7,0c0,0-0.1-0.1-0.1-0.1
				c-2.8-2.8-2.6-2-1.8-5.9c0.4-1.8,0.7-3.5,1-5.3c0.1-0.4,0-0.8-0.2-1.1c-1.8-2.6-1.7-6.8,0.3-9.2c0.1-0.2,0.3-0.4,0.3-0.6
				C90.6,46.2,90.6,44.3,90.6,42.2z"/>
			<path d="M67.7,82.7c-10.2-0.2-18-6.8-19.6-16.4c-0.1-0.7-0.2-1.5-0.2-2.3c-0.1-1.6,1.1-2.5,2.7-2c2.9,0.8,5.8,1.6,8.8,2.3
				c6.5,1.5,13,0.9,19.4-0.8c1.6-0.4,3.2-0.9,4.7-1.4c2.2-0.7,3.3,0.1,3.1,2.4c-0.7,9-6.7,15.9-15.5,17.7
				C69.8,82.6,68.4,82.6,67.7,82.7z"/>
		</g>
	</g>
	<path d="M75,4c39.1,0,71,31.9,71,71s-31.9,71-71,71S4,114.1,4,75S35.9,4,75,4 M75,0C33.6,0,0,33.6,0,75s33.6,75,75,75
		s75-33.6,75-75S116.4,0,75,0L75,0z"/>
</g>
</svg>
