<?xml version="1.0" encoding="utf-8"?>
<!-- Generator: Adobe Illustrator 23.0.5, SVG Export Plug-In . SVG Version: 6.00 Build 0)  -->
<svg version="1.1" id="Layer_1" xmlns="http://www.w3.org/2000/svg" xmlns:xlink="http://www.w3.org/1999/xlink" x="0px" y="0px"
	 viewBox="0 0 150 150" style="enable-background:new 0 0 150 150;" xml:space="preserve">
<g>
	<path d="M75,4c39.1,0,71,31.9,71,71s-31.9,71-71,71S4,114.1,4,75S35.9,4,75,4 M75,0C33.6,0,0,33.6,0,75s33.6,75,75,75
		s75-33.6,75-75S116.4,0,75,0L75,0z"/>
</g>
<g>
	<path d="M32.7,51.6c0-0.8,0-2.2,0-3.6c0.1-2.7,1.2-4.2,3.6-5.2c5.7-2.1,11.4-4.3,17.1-6.4c6.5-2.4,13-4.9,19.5-7.4
		c1.3-0.5,2.6-0.5,3.8-0.1c12.2,4.6,24.5,9.2,36.7,13.8c2.4,0.9,3.6,2.5,3.7,5c0.4,13.8-1.6,27.2-7,39.9
		c-6.6,15.6-17.4,27.2-32.9,34.3c-1.6,0.8-3.2,0.7-4.9-0.1c-6.9-3.3-13.1-7.4-18.5-12.8c-5.6-5.6-10-12.1-13.3-19.3
		c-4.2-9.2-6.6-19-7.6-29.1C32.8,57.9,32.6,55.1,32.7,51.6z M98.3,61.7c0-2.7-2.1-4.7-4.7-4.7c-1.8,0-3,1.2-4.1,2.4
		c-5,5.3-10,10.5-15,15.8c-0.7,0.7-1.1,0.6-1.8,0c-1.7-1.7-3.4-3.4-5.1-5.1c-1.5-1.5-3.6-1.8-5.4-0.9c-2.8,1.4-3.4,5-1.1,7.2
		c3,3.1,6.1,6.1,9.2,9.2c2.2,2.2,4.9,2.1,7.1-0.1c4.7-5,9.5-9.9,14.2-14.8c1.7-1.8,3.4-3.5,5.1-5.3C97.6,64.2,98.4,63,98.3,61.7z"/>
</g>
</svg>
