<?xml version="1.0" encoding="utf-8"?>
<!-- Generator: Adobe Illustrator 23.0.5, SVG Export Plug-In . SVG Version: 6.00 Build 0)  -->
<svg version="1.1" id="Layer_1" xmlns="http://www.w3.org/2000/svg" xmlns:xlink="http://www.w3.org/1999/xlink" x="0px" y="0px"
	 viewBox="0 0 150 150" style="enable-background:new 0 0 150 150;" xml:space="preserve">
<path d="M75,4c39.1,0,71,31.9,71,71s-31.9,71-71,71S4,114.1,4,75S35.9,4,75,4 M75,0C33.6,0,0,33.6,0,75s33.6,75,75,75s75-33.6,75-75
	S116.4,0,75,0L75,0z"/>
<g>
	<path d="M43.1,121.2c0-8.6,0-17.3,0-25.9c0-5.6,2.7-8.9,8.2-10.2c6.8-1.6,13.1-0.7,19.3,2.5c2.4,1.3,4.8,2.4,7.5,2.8
		c0.6,0.1,1.2,0.1,1.9,0.1c2.9,0,5.8,0,8.6,0c2.4,0,3.5,1.1,3.5,3.5c-0.1,4.9-3.1,7.8-8,7.8c-5.4,0-10.8,0-16.3,0
		c-1.2,0-2,0.5-2.5,1.6c-0.5,1-0.3,2,0.5,2.9c0.5,0.6,1.2,0.9,2,0.9c5.8,0,11.6,0,17.4,0c1.9,0,3.5-0.9,4.8-2.2
		c3.8-3.8,7.7-7.7,11.5-11.5c2.8-2.8,6.2-4.3,10.2-4.3c3.6,0.1,6.7,1.4,9.3,3.9c1.2,1.2,1.3,2.8,0.2,4.1c-0.3,0.3-0.5,0.6-0.8,0.9
		c-6.1,6.1-12.2,12.1-18.3,18.3c-2.3,2.4-4.9,4.2-8.2,4.8C76.9,121.2,60,121.2,43.1,121.2z"/>
	<path d="M30.3,121.2c-1.5-0.7-2.1-1.8-2.1-3.4c0-6.9,0-13.9,0-20.8c0-2.4,1.2-3.6,3.6-3.6c1.7,0,3.3,0,5,0c0.6,0,0.9,0.1,0.9,0.8
		c0,8.9,0,17.9,0,26.8c0,0.1,0,0.1,0,0.2C35.2,121.2,32.7,121.2,30.3,121.2z"/>
	<path d="M82.8,24.8c-16.1-0.1-29.4,13.2-29.5,29.4C53.2,70.6,66.6,84.2,82.6,84C98,84.3,112,71.6,112.1,54.5
		C112.2,38.2,99,25,82.8,24.8z M91,38.9c-0.1,2.1-0.6,2.6-2.7,2.6c-0.5,0-1,0-1.5,0c0.2,0.3,0.4,0.6,0.5,0.9
		c0.3,0.7,0.6,1.4,0.8,2.1c0,0.1,0,0.1,0.1,0.2c0.3,0,0.6,0,1,0c0.2,0,0.9,0,1.4,0.5c0.3,0.3,0.5,0.8,0.5,1.4c0,0.3,0,0.7,0,1.1
		c0,0.2,0,0.4,0,0.6v1.2h-2.9c-1.2,4-2.5,5.5-6.3,7.3l0.5,1.1c0.8,1.7,1.6,3.4,2.4,5c0.8,1.7,1.6,3.3,2.4,5l1.5,3.2l-4.2,2l-0.6-1.3
		c-0.1-0.2-0.2-0.4-0.3-0.5c-0.5-1.1-1.1-2.2-1.6-3.3c-1.6-3.3-3.2-6.7-4.8-10.1c-0.2-0.3-0.2-0.4-0.2-0.4c0,0-0.1,0-0.3,0
		c-0.5,0.1-0.9,0-1.4,0c-0.2,0-0.4,0-0.5,0h-1.2v-4.7h1.2c0.4,0,0.9,0,1.3,0c1,0,1.9,0,2.8,0c1.9,0,3.7-1.5,4.4-3.2h-9.7v-1.2
		c0-0.2,0-0.4,0-0.6c0-0.5,0-1.1,0-1.7c0.1-1,1.2-1.4,1.8-1.4c2.2,0,4.5,0,6.7,0l1.1,0c-0.7-1.6-2.5-3.1-4.1-3.1
		c-1.2,0-2.5-0.1-3.7-0.1c0,0,0,0,0,0c-1.2,0-1.9-0.7-1.9-1.8l0-0.1c0-1.1,0-1.7,0.5-2.3c0.6-0.6,1.3-0.6,2.3-0.6l3.2,0
		c3.1,0,6.3,0,9.5,0c0.5,0,1.1,0.1,1.5,0.5c0.5,0.5,0.5,1.1,0.5,1.5L91,38.9z"/>
</g>
</svg>
