<?xml version="1.0" encoding="utf-8"?>
<!-- Generator: Adobe Illustrator 23.0.5, SVG Export Plug-In . SVG Version: 6.00 Build 0)  -->
<svg version="1.1" id="Layer_1" xmlns="http://www.w3.org/2000/svg" xmlns:xlink="http://www.w3.org/1999/xlink" x="0px" y="0px"
	 viewBox="0 0 150 150" style="enable-background:new 0 0 150 150;" xml:space="preserve">
<style type="text/css">
	.st0{fill:#FF4E00;}
	.st1{fill:#FFFFFF;}
</style>
<g>
	<path class="st0" d="M75,0C33.6,0,0,33.6,0,75s33.6,75,75,75s75-33.6,75-75S116.4,0,75,0L75,0z"/>
	<g>
		<path class="st1" d="M90.3,116.7c-10.3,0-20.5,0-30.8,0c-0.3-0.1-0.7-0.2-1-0.3c-3.7-1.1-6.4-4.6-6.4-8.4c0-22,0-44,0-66
			c0-4.8,4-8.7,8.7-8.7c9.4,0,18.7,0,28.1,0c0.7,0,1.4,0.1,2.1,0.3c4.1,1.1,6.7,4.6,6.8,9.2c0,21.5,0,43.1,0,64.6
			c0,1.2-0.1,2.3-0.5,3.4C96.1,114.1,93.7,116,90.3,116.7z M75,44.6c1.8,0,3.7,0,5.5,0c1.2,0,1.9-0.7,1.9-1.7c0-1-0.8-1.8-2-1.8
			c-3.6,0-7.3,0-10.9,0c-1.3,0-2,0.7-2,1.8c0,1.1,0.7,1.7,2,1.8C71.3,44.6,73.1,44.6,75,44.6z M78.6,105.4c0-2-1.6-3.7-3.6-3.7
			c-2,0-3.7,1.6-3.7,3.6c0,2.1,1.6,3.7,3.7,3.7C77,109,78.6,107.5,78.6,105.4z"/>
	</g>
</g>
</svg>
