<?xml version="1.0" encoding="utf-8"?>
<!-- Generator: Adobe Illustrator 23.0.5, SVG Export Plug-In . SVG Version: 6.00 Build 0)  -->
<svg version="1.1" id="Layer_1" xmlns="http://www.w3.org/2000/svg" xmlns:xlink="http://www.w3.org/1999/xlink" x="0px" y="0px"
	 viewBox="0 0 150 150" style="enable-background:new 0 0 150 150;" xml:space="preserve">
<path d="M75,4c39.1,0,71,31.9,71,71s-31.9,71-71,71S4,114.1,4,75S35.9,4,75,4 M75,0C33.6,0,0,33.6,0,75s33.6,75,75,75s75-33.6,75-75
	S116.4,0,75,0L75,0z"/>
<g>
	<path d="M74.9,118.6c-14.2,0-28.3,0-42.5,0c-1.7,0-1.8-0.1-1.8-1.8c0-1.6,0-3.3,0-4.9c0-1.3,0.3-1.6,1.6-1.6c1.8,0,3.5,0,5.3,0
		c1.2,0,1.2,0,1.2-1.3c0-13.9,0-27.7,0-41.6c0-0.3,0-0.5,0-0.8c-0.1-0.8,0.3-1,1.1-0.8c5.1,1.1,10.1-1,12.9-5.5c0.4-0.6,0.6-0.7,1,0
		c2.4,3.8,6,5.8,10.5,5.8c4.3,0,7.7-2,10.1-5.6c0.6-0.9,0.6-0.9,1.2,0c5,7.6,15.7,7.5,20.6,0c0.6-0.9,0.6-0.9,1.2,0
		c2.7,4.2,7.8,6.4,12.7,5.4c1.3-0.3,1.3-0.3,1.3,1.1c0,13.8,0,27.7,0,41.5c0,0.2,0,0.5,0,0.7c-0.1,0.8,0.2,1.2,1.1,1.1
		c1.8-0.1,3.5,0,5.3,0c1.5,0,1.7,0.3,1.7,1.7c0,1.7,0,3.3,0,5c0,1.3-0.2,1.5-1.6,1.5c-13.3,0-26.7,0-40,0
		C76.8,118.6,75.9,118.6,74.9,118.6z M68.6,92.6c0-5.5,0-11.1,0-16.6c0-1.5-0.5-2-2-2c-5.1,0-10.3,0-15.4,0c-1.6,0-2.1,0.5-2.1,2.2
		c0,11,0,22.1,0,33.1c0,0.9,0.3,1.2,1.2,1.2c5.8,0,11.5,0,17.3,0c1.1,0,1.1,0,1.1-1.2C68.6,103.7,68.6,98.1,68.6,92.6z M90.5,73.9
		c-3.1,0-6.1,0-9.2,0c-1.5,0-2,0.5-2,2.1c0,3.3,0,6.7,0,10c0,1.7,0.5,2.2,2.2,2.2c6,0,12.1,0,18.1,0c1.6,0,2.3-0.6,2.3-2.3
		c0-3.3,0-6.5,0-9.8c0-1.6-0.6-2.2-2.2-2.2C96.6,73.9,93.6,73.9,90.5,73.9z M90.5,99.9c3.1,0,6.1,0,9.2,0c0.7,0,1.4-0.1,1.8-0.7
		c0.7-1.2,0.6-2.5,0.1-3.7c-0.4-1-1.5-0.9-2.4-0.9c-5.6,0-11.2,0-16.8,0c-2.9,0-3.1,0.3-3.1,3.2c0,1.7,0.6,2.2,2.3,2.2
		C84.5,100,87.5,99.9,90.5,99.9z"/>
	<path d="M76.4,42c0-3.2,0-6.4,0-9.5c0-0.8,0.2-1.1,1.1-1.1c3.7,0,7.4,0,11.1,0c0.7,0,1,0.3,1.2,1c1.7,6.4,3.4,12.9,5.1,19.3
		c0.3,1,0.2,1.1-0.8,1.1c-5.5,0-10.9,0-16.4,0c-0.9,0-1.2-0.3-1.2-1.2C76.4,48.3,76.4,45.2,76.4,42z"/>
	<path d="M73.6,42.1c0,3.2,0,6.4,0,9.5c0,0.8-0.3,1.1-1.1,1.1c-5.5,0-11.1,0-16.6,0c-0.8,0-1-0.2-0.8-1c1.7-6.5,3.4-13,5.1-19.5
		c0.2-0.6,0.4-0.9,1.1-0.9c3.7,0,7.5,0,11.2,0c0.7,0,1,0.2,1,1C73.6,35.6,73.6,38.8,73.6,42.1z"/>
	<path d="M42.9,52.7c-2.7,0-5.4,0-8.1,0c-1.1,0-1.1-0.1-0.7-1c3.4-6.5,6.8-13,10.2-19.5c0.3-0.5,0.6-0.8,1.3-0.8c3.7,0,7.4,0,11.2,0
		c1,0,1,0.1,0.8,1c-1.7,6.5-3.4,12.9-5.1,19.4c-0.2,0.7-0.5,0.9-1.2,0.9C48.5,52.7,45.7,52.7,42.9,52.7z"/>
	<path d="M107,52.7c-2.7,0-5.4,0-8,0c-0.8,0-1.2-0.2-1.4-1.1c-1.6-6.4-3.3-12.7-5-19.1c-0.3-1.2-0.3-1.2,0.9-1.2c3.6,0,7.3,0,10.9,0
		c0.7,0,1.1,0.2,1.4,0.8c3.4,6.5,6.7,12.9,10.1,19.4c0.5,1,0.5,1.1-0.7,1.1C112.4,52.7,109.7,52.7,107,52.7z"/>
	<path d="M42.4,55.3c2.8,0,5.7,0,8.5,0c0.8,0,0.9,0.3,0.8,1c-0.9,4.1-5,7.3-9.3,7.2c-4.5-0.1-8.4-3.2-9.3-7.3
		c-0.1-0.7,0.1-0.9,0.8-0.9C36.6,55.3,39.5,55.3,42.4,55.3z"/>
	<path d="M107.7,55.3c2.8,0,5.7,0,8.5,0c0.8,0,0.9,0.2,0.8,0.9c-1,4.2-4.8,7.3-9.2,7.3c-4.3,0-8.2-2.9-9.3-7
		c-0.3-1.1-0.2-1.2,0.9-1.2C102.1,55.3,104.9,55.3,107.7,55.3z"/>
	<path d="M64.1,55.3c2.8,0,5.6,0,8.5,0c0.9,0,1,0.1,0.8,1.1c-1.1,4.2-4.8,7.1-9.1,7.2c-4.4,0-8.2-2.9-9.3-7.1
		c-0.3-1-0.2-1.1,0.8-1.1C58.5,55.3,61.3,55.3,64.1,55.3z"/>
	<path d="M85.9,55.3c2.8,0,5.7,0,8.5,0c1,0,1,0.1,0.8,1c-1.1,4.2-4.9,7.2-9.2,7.2c-4.3,0-8.1-2.9-9.2-7.1c-0.3-1.1-0.2-1.2,0.9-1.2
		C80.3,55.3,83.1,55.3,85.9,55.3z"/>
</g>
</svg>
