<?xml version="1.0" encoding="utf-8"?>
<!-- Generator: Adobe Illustrator 23.0.5, SVG Export Plug-In . SVG Version: 6.00 Build 0)  -->
<svg version="1.1" id="Layer_1" xmlns="http://www.w3.org/2000/svg" xmlns:xlink="http://www.w3.org/1999/xlink" x="0px" y="0px"
	 viewBox="0 0 150 150" style="enable-background:new 0 0 150 150;" xml:space="preserve">
<style type="text/css">
	.st0{fill:#2B3990;}
	.st1{fill:#FFFFFF;}
</style>
<g>
	<path class="st0" d="M75,0C33.6,0,0,33.6,0,75s33.6,75,75,75s75-33.6,75-75S116.4,0,75,0L75,0z"/>
	<g>
		<path class="st1" d="M31.4,98.5c0.4,0,0.7,0,1.1,0c15.6,0,31.1,0,46.7,0c0.4,0,0.7,0,1.2,0c0,0.5,0,0.8,0,1.2c0,2.6,0,5.2,0.2,7.8
			c0.2,2.5,1.3,4.7,2.9,6.7c0.1,0.1,0.2,0.2,0.4,0.5c-0.4,0-0.7,0-0.9,0c-14.3,0-28.7,0-43,0c-3.9,0-7.7-3.2-8.3-7.1
			c0-0.2-0.1-0.4-0.2-0.7C31.4,104.2,31.4,101.3,31.4,98.5z"/>
		<path class="st1" d="M104.5,35.3c-2.1,2.6-2.1,5.5-2.1,8.4c0,20.6,0,41.1,0,61.7c0,3.6-1.5,6.5-4.7,8.3c-4.1,2.3-9.6,0.8-11.9-3.4
			c-0.8-1.5-1.2-3.2-1.2-4.9c0-2.8,0-5.6,0-8.4c0-1.8-0.8-2.6-2.6-2.6c-12,0-24,0-36,0c-0.4,0-0.7,0-1.2,0c0-0.4,0-0.6,0-0.9
			c0.1-17.4,0.2-34.8,0.4-52.2c0-2.5,0.9-4.4,3.2-5.4c0.8-0.4,1.9-0.5,2.8-0.5c17.4,0,34.9,0,52.3,0C103.7,35.2,104,35.3,104.5,35.3
			z M72.5,83.7c5.9,0,11.8,0,17.7,0c0.3,0,0.7,0,1,0c0.9-0.1,1.8-0.8,1.9-1.8c0.1-0.9-0.4-1.9-1.2-2.2c-0.4-0.2-0.9-0.2-1.4-0.2
			c-11.9,0-23.9,0-35.8,0c-0.3,0-0.6,0-0.9,0.1c-1,0.2-1.8,1.1-1.7,2.1c0,1,0.9,1.9,1.9,2c0.3,0,0.6,0,0.9,0
			C60.7,83.7,66.6,83.7,72.5,83.7z M72.5,68.7c5.2,0,10.4,0,15.7,0c1,0,2,0,3,0c1,0,1.9-0.8,2-1.8c0.1-0.9-0.4-1.9-1.2-2.2
			c-0.5-0.2-1-0.2-1.5-0.2c-11.9,0-23.8,0-35.6,0c-0.3,0-0.6,0-0.9,0c-1,0.1-1.7,0.9-1.8,1.9c-0.1,0.9,0.5,1.9,1.4,2.2
			c0.4,0.1,0.8,0.1,1.2,0.1C60.6,68.7,66.6,68.7,72.5,68.7z M64,53.7c3.2,0,6.3,0,9.5,0c0.4,0,0.9,0,1.2-0.2
			c0.9-0.4,1.4-1.4,1.2-2.3c-0.2-1-1.1-1.7-2.4-1.7c-6.3,0-12.7,0-19,0c-0.4,0-0.9,0.1-1.3,0.3c-0.9,0.4-1.3,1.4-1.1,2.2
			c0.2,1,1.1,1.7,2.1,1.7C57.5,53.7,60.7,53.7,64,53.7z"/>
		<path class="st1" d="M118.5,70.3c-0.2,0-0.4,0-0.6,0c-3.5,0-7,0-10.5,0c-0.6,0-0.8-0.2-0.8-0.8c0-9.3,0-18.5,0-27.8
			c0-5,4.9-7.9,9.1-5.4c1.9,1.1,2.9,2.8,2.9,5c0,9.6,0,19.2,0,28.7C118.6,70.1,118.5,70.2,118.5,70.3z"/>
	</g>
</g>
</svg>
